# xmcd
# Copyright (c) 1998 CDDB Inc.
#
# Track frame offsets:
#	150
#	21560
#	49190
#
# Disc length: 1036 seconds
#
# Revision: 1
# Processed by: cddbd v1.4b41PL2 Copyright (c) Steve Scherf et al.
# Submitted via: audiograbber 1.70
#
DISCID=23040a03
DTITLE=Denis Smalley - Névé
DYEAR=1900
DGENRE=
TTITLE0=Névé
TTITLE1=Corrie
TTITLE2=Sandar
EXTD=
EXTT0=
EXTT1=
EXTT2=
PLAYORDER=
